<svg width="16" height="16" viewBox="0 0 16 16" fill="none" xmlns="http://www.w3.org/2000/svg">
<path id="Vector" fill-rule="evenodd" clip-rule="evenodd" d="M7.22958 1.04918C4.09092 1.04918 1.5465 3.78932 1.5465 7.16942C1.5465 10.5495 4.09091 13.2896 7.22958 13.2896C8.76939 13.2896 10.1662 12.6301 11.1896 11.5591C11.2053 11.5353 11.223 11.5127 11.2428 11.4914C11.2626 11.47 11.2836 11.451 11.3057 11.4341C12.3002 10.3319 12.9126 8.82767 12.9126 7.16942C12.9126 3.78931 10.3682 1.04918 7.22958 1.04918ZM12.2689 11.8545C13.2771 10.5979 13.8868 8.96037 13.8868 7.16942C13.8868 3.20988 10.9063 0 7.22958 0C3.55286 0 0.572266 3.20987 0.572266 7.16942C0.572266 11.129 3.55286 14.3388 7.22958 14.3388C8.89261 14.3388 10.4132 13.6821 11.58 12.5964L14.5978 15.8464C14.7881 16.0512 15.0965 16.0512 15.2867 15.8464C15.477 15.6415 15.477 15.3093 15.2867 15.1045L12.2689 11.8545Z" fill="#B2B2B2"/>
</svg>
