<svg width="18" height="19" viewBox="0 0 18 19" fill="none" xmlns="http://www.w3.org/2000/svg">
<g id="Vector">
<path id="Vector_2" d="M8.66514 18.8283C8.54288 18.7991 8.42062 18.7747 8.29836 18.7357C7.21268 18.3997 6.54269 17.6887 6.31773 16.5735C6.30795 16.5248 6.29328 16.4809 6.27861 16.4225C6.20525 16.4225 6.1319 16.4225 6.05854 16.4225C4.9044 16.4225 3.75515 16.4274 2.60101 16.4176C1.74518 16.4128 0.977384 15.8673 0.674178 15.0687C0.36608 14.27 0.571478 13.3836 1.20723 12.7992C1.60825 12.4291 2.08751 12.2441 2.63035 12.21C2.89932 12.1954 2.95312 12.1272 2.95312 11.8593C2.95312 10.6759 2.92867 9.48766 2.95801 8.30426C3.02158 5.7183 4.25886 3.88232 6.59649 2.77196C6.70897 2.71839 6.87524 2.70378 6.93393 2.61125C6.99261 2.52359 6.93882 2.36775 6.93882 2.24113C6.91926 1.09669 7.85822 0.161653 9.00747 0.166523C10.1567 0.171393 11.0859 1.11617 11.0566 2.26548C11.0517 2.38236 11.0419 2.49437 11.0321 2.63073C11.1055 2.65995 11.1886 2.69404 11.2668 2.733C13.4529 3.74109 14.6999 5.43097 15.008 7.81239C15.0374 8.04615 15.0423 8.28478 15.0423 8.52341C15.0472 9.61915 15.0423 10.71 15.0423 11.8058C15.0423 12.1564 15.0765 12.1905 15.4188 12.2197C16.4311 12.3074 17.2381 12.9892 17.4239 13.9047C17.6831 15.2099 16.7001 16.4176 15.365 16.4274C14.2207 16.4371 13.0714 16.4274 11.9271 16.4274C11.8586 16.4274 11.795 16.4274 11.7657 16.4274C11.6239 16.7878 11.5309 17.1433 11.3549 17.4549C10.9294 18.2147 10.2643 18.6627 9.39871 18.8039C9.36447 18.8088 9.33024 18.8234 9.29601 18.8331C9.08083 18.8283 8.87543 18.8283 8.66514 18.8283ZM8.98791 15.2196C11.0859 15.2196 13.1839 15.2196 15.2819 15.2196C15.815 15.2196 16.216 14.8739 16.2453 14.3966C16.2795 13.8853 15.9323 13.4908 15.3895 13.4226C15.2574 13.4031 15.1205 13.408 14.9885 13.3836C14.294 13.2375 13.8294 12.6629 13.8294 11.9421C13.8245 10.7879 13.8245 9.63376 13.8294 8.47958C13.8294 7.84161 13.7218 7.22312 13.492 6.62898C12.4503 3.92128 9.37914 2.68917 6.82145 4.00407C5.12936 4.87092 4.22463 6.30756 4.17084 8.22147C4.1366 9.46331 4.16594 10.71 4.16105 11.9567C4.15616 12.6678 3.6769 13.2473 2.98735 13.3836C2.83086 13.4129 2.66947 13.408 2.51298 13.4372C1.87233 13.5492 1.53978 14.2359 1.86255 14.7716C2.05817 15.093 2.3516 15.2245 2.72327 15.2245C4.81637 15.2196 6.89969 15.2196 8.98791 15.2196ZM7.54034 16.4323C7.59414 17.0556 8.2788 17.6205 8.97813 17.6254C9.69702 17.6303 10.3866 17.08 10.455 16.4323C9.48184 16.4323 8.51354 16.4323 7.54034 16.4323ZM9.82906 2.30444C9.87308 1.96841 9.71169 1.647 9.41338 1.48142C9.10039 1.31097 8.72872 1.34019 8.45485 1.55934C8.21033 1.75901 8.09296 2.07555 8.17121 2.29957C8.72872 2.30444 9.27155 2.30444 9.82906 2.30444Z" fill="#5663B1"/>
<path id="Vector_3" d="M1.15908 7.38874C0.748283 7.38874 0.474419 7.03323 0.591789 6.60467C0.71405 6.1615 0.846092 5.71833 1.01237 5.28977C1.41338 4.27195 2.02469 3.38561 2.79737 2.60642C3.01255 2.39214 3.30598 2.34831 3.5505 2.48467C3.78524 2.62103 3.91239 2.88888 3.82925 3.15185C3.79502 3.26386 3.72656 3.37587 3.64342 3.45866C2.69956 4.41805 2.07359 5.55275 1.76549 6.85791C1.68725 7.20855 1.47207 7.38874 1.15908 7.38874Z" fill="#5663B1"/>
<path id="Vector_4" d="M17.4242 6.76045C17.4193 7.08674 17.2041 7.33997 16.9205 7.37893C16.6173 7.42276 16.3385 7.24745 16.2456 6.95038C16.1331 6.58513 16.0402 6.21501 15.9033 5.8595C15.5609 4.96343 15.0426 4.17449 14.3628 3.49269C14.2112 3.33685 14.1085 3.1664 14.1378 2.94238C14.1672 2.69889 14.3041 2.52357 14.5339 2.44078C14.7834 2.35312 15.0034 2.41643 15.1844 2.60149C15.8201 3.23945 16.3434 3.96021 16.7444 4.76863C17.033 5.35302 17.253 5.96177 17.3997 6.59974C17.4193 6.66305 17.4242 6.73123 17.4242 6.76045Z" fill="#5663B1"/>
</g>
</svg>
