<svg width="18" height="24" viewBox="0 0 18 24" fill="none" xmlns="http://www.w3.org/2000/svg">
<g id="Frame" clip-path="url(#clip0_3524_30569)">
<g id="Group">
<path id="Vector" d="M1.8 0C5.18425 0 8.56849 0 11.9527 0C12.0945 0.1125 12.2548 0.20625 12.3842 0.3375C14.1534 2.13125 15.9164 3.925 17.6918 5.71875C17.9075 5.9375 18.0062 6.175 18.0062 6.4875C18 8.95 18 11.4062 18 13.8687C18 16.525 18 19.1812 18 21.8375C18 22.7875 17.4637 23.5688 16.6192 23.875C16.4836 23.925 16.3418 23.9562 16.2 24C11.4041 24 6.60205 24 1.80616 24C1.79384 23.9937 1.78151 23.9813 1.76918 23.975C0.54863 23.6562 0 22.9375 0 21.675C0 16.7562 0 11.8375 0 6.91875C0 5.325 0 3.73125 0 2.1375C0 1.4125 0.283562 0.80625 0.875342 0.4C1.15274 0.21875 1.49178 0.13125 1.8 0ZM11.0774 1.40625C10.9726 1.40625 10.8986 1.40625 10.8185 1.40625C7.95205 1.40625 5.07945 1.40625 2.21301 1.40625C1.64589 1.40625 1.38699 1.66875 1.38699 2.25C1.38699 8.75 1.38699 15.25 1.38699 21.75C1.38699 22.3312 1.64589 22.5938 2.21301 22.5938C6.73151 22.5938 11.2562 22.5938 15.7747 22.5938C16.3479 22.5938 16.6068 22.3313 16.6068 21.7563C16.6068 16.9375 16.6068 12.1187 16.6068 7.29375C16.6068 7.2125 16.6068 7.13125 16.6068 7.03125C16.4959 7.03125 16.4096 7.03125 16.3233 7.03125C15.2568 7.03125 14.1842 7.0375 13.1178 7.03125C12.2363 7.025 11.4473 6.44375 11.1822 5.59375C11.1021 5.34375 11.0712 5.075 11.0712 4.8125C11.0712 3.6875 11.0774 2.5625 11.0774 1.40625ZM12.4582 2.4625C12.4582 3.3 12.4521 4.125 12.4644 4.95C12.4705 5.3375 12.7788 5.61875 13.1795 5.625C13.9562 5.63125 14.7267 5.625 15.5034 5.625C15.5281 5.625 15.5589 5.6125 15.5651 5.6125C14.5295 4.5625 13.5 3.51875 12.4582 2.4625Z" fill="#5663B1"/>
<path id="Vector_2" d="M8.9931 9.9375C10.3616 9.9375 11.7301 9.9375 13.0986 9.9375C13.6472 9.9375 13.9986 10.4438 13.7828 10.925C13.6472 11.2188 13.413 11.3438 13.0986 11.3438C12.1061 11.3438 11.1137 11.3438 10.1274 11.3438C8.389 11.3438 6.6568 11.3438 4.91845 11.3438C4.36365 11.3438 4.00612 10.85 4.22187 10.3687C4.35749 10.0687 4.60406 9.9375 4.92461 9.9375C6.27461 9.9375 7.63694 9.9375 8.9931 9.9375Z" fill="#5663B1"/>
<path id="Vector_3" d="M8.9992 14.1562C7.63071 14.1562 6.26222 14.1562 4.89372 14.1562C4.33276 14.1562 3.98756 13.625 4.22797 13.1438C4.36359 12.8625 4.604 12.75 4.90605 12.75C6.21906 12.75 7.53208 12.75 8.84509 12.75C10.2691 12.75 11.6869 12.75 13.1108 12.75C13.6595 12.75 13.9985 13.2688 13.7704 13.75C13.6287 14.0438 13.3882 14.1562 13.0739 14.1562C11.7177 14.1562 10.3554 14.1562 8.9992 14.1562Z" fill="#5663B1"/>
<path id="Vector_4" d="M8.97455 16.9688C7.61222 16.9688 6.25605 16.9688 4.89372 16.9688C4.33276 16.9688 3.98756 16.4375 4.22797 15.9563C4.36975 15.675 4.604 15.5625 4.90605 15.5625C6.37934 15.5625 7.85879 15.5625 9.33208 15.5625C10.5896 15.5625 11.8533 15.5625 13.1108 15.5625C13.6595 15.5625 13.9985 16.0875 13.7704 16.5625C13.6287 16.8563 13.3882 16.9688 13.0739 16.9688C11.7054 16.9688 10.343 16.9688 8.97455 16.9688Z" fill="#5663B1"/>
<path id="Vector_5" d="M7.61846 18.375C8.5123 18.375 9.39997 18.375 10.2938 18.375C10.7623 18.375 11.0767 18.6563 11.0767 19.075C11.0767 19.4938 10.7623 19.7812 10.3 19.7812C8.5123 19.7812 6.71846 19.7812 4.93079 19.7812C4.46846 19.7812 4.15408 19.4875 4.16025 19.0688C4.16641 18.6625 4.48079 18.375 4.92463 18.375C5.81846 18.375 6.71846 18.375 7.61846 18.375Z" fill="#5663B1"/>
</g>
</g>
<defs>
<clipPath id="clip0_3524_30569">
<rect width="18" height="24" fill="white"/>
</clipPath>
</defs>
</svg>
