<svg width="24" height="24" viewBox="0 0 24 24" fill="none" xmlns="http://www.w3.org/2000/svg">
<path id="Vector" fill-rule="evenodd" clip-rule="evenodd" d="M11.25 24H12.7031C12.8445 23.9814 12.986 23.9646 13.1272 23.9478L13.1274 23.9478L13.1275 23.9478C13.4497 23.9094 13.7713 23.8711 14.0906 23.8125C17.8922 23.0812 20.7281 21.0141 22.5938 17.6344C23.4047 16.1672 23.8453 14.5781 23.9625 12.9047C23.9662 12.8534 23.9784 12.7992 23.9903 12.7466C23.9936 12.732 23.9969 12.7174 24 12.7031V11.2969C23.9811 11.1529 23.9644 11.0089 23.9478 10.8651C23.9108 10.5453 23.8739 10.2262 23.8125 9.90937C23.0859 6.1125 21.0141 3.27656 17.6344 1.40625C16.1625 0.595313 14.5687 0.15 12.8859 0.0375C12.8402 0.0339845 12.7945 0.0225593 12.7488 0.0111338L12.7488 0.0111332L12.7488 0.0111328C12.7336 0.00732424 12.7184 0.00351563 12.7031 0H11.2969C11.1529 0.0189063 11.0089 0.0355566 10.8651 0.0521906C10.5453 0.0891702 10.2262 0.12607 9.90937 0.1875C6.10781 0.91875 3.27187 2.98594 1.40625 6.36563C0.6 7.83281 0.154687 9.42188 0.0375 11.0953C0.0338348 11.1466 0.0215723 11.2008 0.00967544 11.2534L0.00967309 11.2534L0.00967254 11.2534C0.00635509 11.268 0.00306612 11.2826 0 11.2969V12.75C0.0136031 12.8486 0.0269321 12.9472 0.0402521 13.0458C0.0820114 13.3548 0.123683 13.6631 0.173438 13.9688C0.384375 15.3094 0.825 16.5656 1.48125 17.7516C1.56563 17.9109 1.575 18.0422 1.51875 18.2109C1.07785 19.5666 0.644188 20.9259 0.211405 22.2825L0.0328125 22.8422C0.0296096 22.8518 0.019841 22.8592 0.0109838 22.8659L0.0109792 22.8659C0.00687562 22.8691 0.002968 22.872 0 22.875V23.25C0.126563 23.625 0.375 23.8734 0.75 24H1.125C1.42509 23.9014 1.72518 23.8032 2.02514 23.705C2.7232 23.4766 3.42056 23.2484 4.11563 23.0156C4.28236 22.9623 4.4487 22.9082 4.615 22.8541C5.01904 22.7227 5.42279 22.5914 5.83125 22.4719C5.94375 22.4391 6.09844 22.4484 6.19687 22.5047C7.50937 23.2266 8.91094 23.6813 10.3922 23.8922C10.5637 23.9175 10.7353 23.9377 10.9068 23.958L10.9073 23.958C11.0215 23.9715 11.1358 23.985 11.25 24ZM3.35059 21.3097L3.35028 21.3098C3.0359 21.407 2.71772 21.5054 2.39531 21.6094C2.65781 20.7797 2.90625 20.0016 3.15938 19.2234C3.18629 19.1401 3.2125 19.0568 3.23869 18.9736C3.30827 18.7525 3.37763 18.532 3.45938 18.3141C3.6 17.9344 3.55781 17.5922 3.34688 17.2453C2.74219 16.2609 2.31562 15.1969 2.09531 14.0625C1.52813 11.1187 2.08594 8.40938 3.88125 5.99531C5.54063 3.75938 7.7625 2.4 10.5187 1.99687C13.2516 1.59844 15.7641 2.2125 17.9906 3.86719C20.0484 5.39531 21.3844 7.41094 21.9 9.92344C22.5 12.8344 21.9375 15.5297 20.1844 17.9391C18.6609 20.0391 16.6125 21.3844 14.0672 21.9141C11.6156 22.4203 9.27656 22.0688 7.09687 20.8406C6.49687 20.5031 5.98125 20.4094 5.33438 20.6531C4.68773 20.8964 4.02797 21.1004 3.35062 21.3097L3.35059 21.3097ZM4.00005 11.992C3.99204 13.088 4.91386 14.0079 6.01202 13.9999C7.10218 13.9919 7.99995 13.088 7.99995 12.008C8.00796 10.912 7.08614 9.99205 5.98798 10.0001C4.90584 10.0081 4.00807 10.912 4.00005 11.992ZM14 11.996C14 13.0942 13.0782 14.008 11.98 13.9999C10.8978 13.9919 10 13.0861 10 12.004C10 10.9058 10.9218 9.99204 12.02 10.0001C13.1022 10.0081 13.992 10.9058 14 11.996ZM17.992 13.9999C19.096 14.008 20.0079 13.0861 19.9999 11.988C19.9919 10.9058 19.088 10.0081 18.008 10.0001C16.904 9.99204 15.9921 10.9139 16.0001 12.012C16.0081 13.0942 16.912 13.9919 17.992 13.9999Z" fill="#5663B1"/>
</svg>
